# xmcd
#
# Track frame offsets: 
#        150
#        6466
#        16346
#        39562
#        84016
#        112251
#        131931
#        156553
#
# Disc length: 2320 seconds
#
# Revision: 0
# Processed by: cddbd v1.5.2PL0 Copyright (c) Steve Scherf et al.
# Submitted via: ExactAudioCopy v0.99pb5
#
DISCID=67090e08
DTITLE=B.B. King - Live in Cook County Jail
DYEAR=1971
DGENRE=Blues
TTITLE0=Introduction
TTITLE1=Every Day I Have the Blues
TTITLE2=How Blue Can You Get
TTITLE3=Worry, Worry, Worry
TTITLE4=Medley: 3O'Clock Blues/Darlin' You Know I Love You
TTITLE5=Sweet Sixteen
TTITLE6=The Thrill is Gone
TTITLE7=Please Accept My Love
EXTD=
EXTT0=
EXTT1=
EXTT2=
EXTT3=
EXTT4=
EXTT5=
EXTT6=
EXTT7=
PLAYORDER=
